<!--?xml version="1.0" standalone="no"?-->
              <svg id="sw-js-blob-svg" viewBox="0 0 100 100" xmlns="http://www.w3.org/2000/svg" version="1.1">
                    <defs> 
                        <linearGradient id="sw-gradient" x1="0" x2="1" y1="1" y2="0">
                            <stop id="stop1" stop-color="rgba(248, 117, 55, 1)" offset="0%"></stop>
                            <stop id="stop2" stop-color="rgba(251, 168, 31, 1)" offset="100%"></stop>
                        </linearGradient>
                    </defs>
                <path fill="url(#sw-gradient)" d="M23.3,-25C31.2,-21.2,39.1,-14.8,41.7,-6.4C44.2,1.9,41.4,12.1,35.3,18.1C29.1,24.2,19.7,26.1,10.8,29.1C1.9,32.1,-6.3,36.1,-13.4,34.5C-20.4,32.9,-26.2,25.7,-30.6,17.8C-35.1,9.9,-38.1,1.3,-38.1,-8.1C-38.1,-17.6,-35.1,-27.9,-28.2,-31.9C-21.4,-35.9,-10.7,-33.6,-1.5,-31.8C7.7,-30.1,15.5,-28.9,23.3,-25Z" width="100%" height="100%" transform="translate(50 50)" stroke-width="0" style="transition: 0.3s;"></path>
              </svg>